
        <svg xmlns="http://www.w3.org/2000/svg" xmlns:xlink="http://www.w3.org/1999/xlink" version="1.1" width="3192" height="3154.635099203505" viewBox="0 0 3192 3154.635099203505">
			
			<g transform="scale(9.6) translate(10, 10)">
				<defs id="SvgjsDefs1854"/><g id="SvgjsG1855" featureKey="rootContainer" transform="matrix(2.8950081747227903,0,0,2.8950081747227903,-0.16083872809651176,0)" fill="#fff"><g xmlns="http://www.w3.org/2000/svg"><path d="M19.8 15.3h.5l-.4-.2zm.5.1zm.8-.7c0 .1 0 .1.1.1l.4-.3c-.2-.1-.3-.1-.5.2zm.4-.2zm-4.1 2.3zm-.2.6l.3-.2c.1-.1.1-.2.1-.2h-.2l-.2.4c-.1-.1-.1 0 0 0zm2.2-2.9h-.1l-.2.2h.3zm-2.1 2.4l.6-.5c.1-.1.1-.2.1-.3h-.3l-1.2 1.1-.2.4.7-.6zm-1.1.8z"/><path d="M9.7 25v-.2a1.7 1.7 0 0 1 .7-1.1l.9-.6.5-.6.7-.7.4-.4.4-.3a1.9 1.9 0 0 0 .8-.9l.4-.5a5.9 5.9 0 0 0 1-1.3l.2-.3.3-.2-.2-.3.4-.5c.8-.6 1.4-1.4 2.2-2l.3-.3a1.4 1.4 0 0 1 .5-.6l.8-.4h.4a1.4 1.4 0 0 0 .7-.6V13a3.5 3.5 0 0 1 1.3-1.4l.8-.5.2-.2.4-.4 1-.5h.2l-1.1.4-1.4 1c-.6.5-1.4.6-1.8 1.4h.3c-.7.2-1.4.5-1.7 1.2s-.8.6-1.2.9a.4.4 0 0 0-.3.4c-.8-.1-1.1.5-1.5.9v.8a3.9 3.9 0 0 0-1.6 1.4c-1.6.1-1.6 2.1-3 2.5h-.1a.2.2 0 0 0 0 .2c-.3 0-.5.2-.4.5l-.2.5c-.7.4-.6 1.1-1 1.7-.8.5-1.1 1.5-1.7 2.2l.3.5.2-.2a11.6 11.6 0 0 1 .9-1.3zM53.9 3.3l.6.2h.2a2.2 2.2 0 0 0 1.4.2 4.1 4.1 0 0 1 1.9.1h1.2a1.4 1.4 0 0 1 1.2.3.1.1 0 0 1 0 .1H60a.1.1 0 0 0 0 .1h.7a1.8 1.8 0 0 1 1.3 0c.2 0 .1.1.2.2l.5.2h-.2c-.2-.4-.5-.4-.8-.4a9.7 9.7 0 0 0-4.3-.9h-.8A9.8 9.8 0 0 0 53 3h.2zm7.3 3.1zM50.3 4.7zm10.9 1.7h.2-.2zM19 14.7zm32.1-10zm17.6 2.2a.9.9 0 0 0 1 .2h.6a3.1 3.1 0 0 0-1.8-.7l-.7-.2.5.3zm-3.4-1.3c0 .1.1.2.2.3h.2l.5-.3a4.2 4.2 0 0 0-1.7-.6l.7.4zm7.4 2.7l.8.5c-.2-.3-.4-.5-.8-.5z"/><path d="M99 76.1l.6-1.6.6-1.5c.2-.5.6-1.8.8-2.6a1.7 1.7 0 0 1 .3-.7h.1v-1.1c.5-.1.4-.6.5-.9l.8-4.7a12.7 12.7 0 0 0 0-6.2 1.9 1.9 0 0 0-.5-1.6v-4.3c-.3-.9.3-1.9-.4-2.7L101 45a.4.4 0 0 0 0-.2l-.2-.6a.5.5 0 0 1 0-.4h.1c.3 0 .3-.5.3-.9a3 3 0 0 0-.4-1.1l-.3-.4a1.1 1.1 0 0 1-.2-.7 6.7 6.7 0 0 0-.2-2v-.6c-.2-.7-.4-1.5-.6-2.2l-.2-.5a2.5 2.5 0 0 1-.4-1.1 2.5 2.5 0 0 0-.3-.8l-.6-1a.8.8 0 0 0-.6-.2h-.1V32h-.2v-.8H97V31a.4.4 0 0 0 0-.1v-.2c.1-.2.1-.3-.1-.5a1.8 1.8 0 0 1-.4-.6l-.2-.6a2.9 2.9 0 0 0-.7-1.2 2.2 2.2 0 0 1-.5-.7l-.7-1.6a4.3 4.3 0 0 0-.6-1l-.6-.8a2.4 2.4 0 0 1-.4-.8l-.2-.3a.6.6 0 0 1-.1-.5.5.5 0 0 0-.2-.4l-.4-.3v.2c.1.2 0 .3-.1.3h-.2l.3 1 .3.5.7.9h-.1l-.2-.2-.2-.2a1.3 1.3 0 0 0-1.2-1.1v-.7c-.3-1.2-1.6-1.3-2.2-2.1a1.5 1.5 0 0 0-1.1-.9l-.8-.9a11.3 11.3 0 0 0-3.1-3l-.8-.6-.4-.3c-.7-.7-1-1.8-2.2-1.8l-.8-.5-.9-.7a2.2 2.2 0 0 0-1.8-1.3 5.1 5.1 0 0 0-2.3-1.2l.2.2.5.4 1.3.7a8.5 8.5 0 0 1 2.1 1.6 6.8 6.8 0 0 0 1.5 1.1l.6.5c.1.1.2.2.1.3H81l-.9-.3a5.6 5.6 0 0 1-2-.8l-1.2-.6-1.3-.7h-.2c-.3-.1-.4-.4-.8-.5l-.8-.2-2.5-.5a2.6 2.6 0 0 1-.9-.7 1.7 1.7 0 0 1-.9-.3l-1-.4a18.1 18.1 0 0 1-2.8-.8l-.6-.2-1-.3h-.5l-.2-.3v-.1h-1.6l-.6-.5-.4.2-.4.2h-.2l-.9-.5c-.6.6-1.1-.2-1.6-.1l-1-.3a1.2 1.2 0 0 1-1.2 0h-1.2a.6.6 0 0 1-.5-.6l.3-.2h.6a.7.7 0 0 1 .1.3c0 .2.2.2.5.2h.2l-.4-.6a1.1 1.1 0 0 0-1-.2l-1 .3H53c.3.2.2.3.2.5h-1.6l-.4-.2-.8-.4h-.1l-.7-.2h-2.3l.4-.2.8-.2h.3l1.7-.3 1.1-.2.6-.2h-1.1a8.4 8.4 0 0 0-3.4 0h-1.3L43 3.6c-1.4.1-2.8 0-3.9 1.2-2.5-.4-4.7.7-6.9 1.8l-2.2.9a6.7 6.7 0 0 0-3.7 1.8h.3l.5-.3.8-.5 1.3-.6 1-.2a6 6 0 0 1 2-.9l.9-.3h.2c.1.2.5 0 .7 0h.2c.1 0 .1.1 0 .1l-.6.4 1-.3.8-.2-1.3.7-1.3.4a1 1 0 0 0-.6.5l-.3.5h.3l.4-.2a1.4 1.4 0 0 1 .9-.6l1.5-.5h.5a.1.1 0 0 1 .1.2c-.2.2-.6.3-.8.5h.2l-3.2.9-3.8 1.6a5.2 5.2 0 0 1-2.3 1.2 6.6 6.6 0 0 1-1.7 1.1l-.8.2a1.5 1.5 0 0 1-1.3.9l-.3.5a3.7 3.7 0 0 1-1.2 1.1h-.1v-.1l-.2.2-.2.2-1 .2h-.5l-.4.5c-.1.1-.1.2 0 .2h.1c-.6.6-1 1.4-1.8 1.7L15 19.9c-.6 1.2-1.8 1.6-2.6 2.6s-1.4 3.9-3.9 4.3l-.2-.3-.2.5a2.7 2.7 0 0 1-.4.8 16.9 16.9 0 0 0-1.2 2.1.8.8 0 0 0-.1.5 1.4 1.4 0 0 1-.2.8l-.5 1.1h.2c.3 0 .3.3.4.6l.8-1.1a2.2 2.2 0 0 1 .6-.7 2 2 0 0 0 .9-.9l.3-.3.4-.4.6-1.1h.2c.1.1.1.1.2 0l.2-.4h.5v.8l.5-.5a.5.5 0 0 0 0-.5.4.4 0 0 1 .1-.3 1.5 1.5 0 0 0 .3-.5 1.3 1.3 0 0 1 .8-.9l.3-.2.3-.3a2.4 2.4 0 0 0 .8-1l-.2-.3c0-.1.1-.3.2-.4h.5l.6-.8.6-.3h.2a48.8 48.8 0 0 0-5.5 7.2h-.1.1a48.4 48.4 0 0 0-5.3 11.2h-.5l-.5-.4c-.2-.2-.1-.7-.4-.9h.1c.3-.5-.1-1.2.3-1.7s.1-1.4-.9-1.2-1.5.5-1.3 1.5-1 1.8-1.1 2.9-.5.5-.3.9v3.9c.1.8-.5 1.8.8 2.1l1.3.9c.1.5-.5 1.6.9 1.3a49.2 49.2 0 0 0-.3 5c0 1.1.1 2.2.1 3.3v-.4c-.1-.4-.1-.8-.2-1.3l-.3.3v-.2h-.5c0 .5-.1.8-.4.9a.9.9 0 0 0-.1.5c0 .1.1.3.2.2s.4.2.7.4-.2.3-.4.2-.2.1-.2.3v.3l.5 1.5c0 .3-.1.6-.1.9a1.7 1.7 0 0 0 .2.8h-.3v-.3l-.7-.2v-.6a1.5 1.5 0 0 0 0-.5 14.6 14.6 0 0 1-.3-1.8 16.6 16.6 0 0 1-.2-3.5.9.9 0 0 1 .1-.5v.2a2.9 2.9 0 0 1 .1.5.8.8 0 0 0 .1.4c.1.2.2.4.4.4s.1-.1.1-.2a2.1 2.1 0 0 0-.1-.5 4.2 4.2 0 0 1-.3-1.3 1.5 1.5 0 0 0-.3-.7 1.6 1.6 0 0 1-.2-.9v-.8c0-.3.1-.6.1-.9a.5.5 0 0 0-.1-.4h-.1c-.8.4-.7.2-1 1.6V55c0 .7-.1 1.4 0 2.1a10.8 10.8 0 0 0 .2 2.3 1.8 1.8 0 0 1 0 .5 3.1 3.1 0 0 0 .1.9 5.9 5.9 0 0 1 .1 1.3 3.9 3.9 0 0 0 .2 1.7 1.2 1.2 0 0 1 0 .4 2.1 2.1 0 0 0 .1.8 4.9 4.9 0 0 1 .2.9 14 14 0 0 0 .5 2.2 5 5 0 0 1 .2 1 1.7 1.7 0 0 0 .3.7 2.9 2.9 0 0 1 .5 1.2 8.5 8.5 0 0 0 .3 1l.4 1.4a5.4 5.4 0 0 0 .6 1.5 8.5 8.5 0 0 1 .8 2.1l.2.5a2.1 2.1 0 0 1 .5 1 2.1 2.1 0 0 0 .4.8 1 1 0 0 1 .2.5c.1.3.2.4.4.3h.1v.9l.5 1 .5 1 1.1 1.2.4.4c.3.3.7.5.9 1l.4.3a.7.7 0 0 1 .3.5l.2.7a3.3 3.3 0 0 0 .6.9l.4.2h.3a.2.2 0 0 1 .1.3 2.5 2.5 0 0 0 0 .5.9.9 0 0 0 .4.5h.2c.4-.1.8.2 1.2.7h.1c0-.1.1-.1 0-.2v-.2c0-.1.1-.2.2-.1a.7.7 0 0 1 .3.6v.2a4.3 4.3 0 0 0 .4 1.2c.5.3.5.3.5.1s0-.2.2-.2h.4l.2.3.8.5c.7.8 1.8.7 2.6 1.2l1.7 1.7h.2a2.9 2.9 0 0 0 1.6 1.6 1.3 1.3 0 0 0 1 .6c0 .5.6.6 1.1.7a1.2 1.2 0 0 0 .8.4h.2a1.7 1.7 0 0 0 1.5.5l.9.8 2.4.9v.2c.5 1.1 1.7.7 2.5 1l1.1.4h.4c1.2.3 2.4.9 3.7.5a.7.7 0 0 0 0 .4c1.1.7 2.4 0 3.6.4a2.9 2.9 0 0 0 1.7.1h.1l.8.2h.3l.9.2h.3a.5.5 0 0 1 .5 0 7.9 7.9 0 0 0 1.5.4h.6a.7.7 0 0 1 .7 0h3.9a5 5 0 0 0 1.6-.1h1l.5-.2H60l.6-.2.5-.3h2.2v.6H62l-1.2.2c-.4.1-.7 0-1 .1a2.4 2.4 0 0 1-1 .2l-1.3.3h-.4a3.1 3.1 0 0 0-1.5.1h-1.8a1.1 1.1 0 0 1-.9 0h-4.5a1.3 1.3 0 0 0-1.1.3H47l-.3-.2v-.3h-1.2a4.1 4.1 0 0 0-1.3-.3h-2.5l-.7-.2-.5-.2-2.1-.4h-.5l-.5-.2-2.1-.7-1.4-.4h-2.2c-.1 0-.1.1-.1.2h.2c1.3.5 2.6.9 3.9 1.5h.3l.9.2 1.4.4h1.3l.6.2.7.3 1.7.3 1.1.2 1.1.2h.8l.8.2h3.1l1 .2h2.3l1-.2H56c.4 0 .6-.1.7-.3h1a1 1 0 0 0 .8-.3c-.1.1 0 .1.1.2h.4v-.2c0-.1 0-.1.2-.2s.6-.1.7.1h.4l.3-.2c.2 0 .2 0 .2.1h.7l.5-.2.8-.4c.1.3.4.4 1.3.2l1.3-.4h1.2c.9-.1 2 0 2.7-.7h.2l.4-.3 1.1-.3a6.1 6.1 0 0 0 2-.8l.4-.2h.1l.9-.6.4-.2.5-.2h.4c.4-.1.4-.1.5-.4s0-.1-.2-.1h-.1l.4-.5h.2c.3-.1.5-.2.7-.1h.2a1.3 1.3 0 0 0 .9-.9c.3-.4 1.1-.2 1.3-.8l4.3-3.1c1.1-.1 1.4-1.1 2.2-1.7s2.3-1.1 3-2.2l.9-.4h.1a1 1 0 0 0 1.2-.7v.4c.8-.4 1.8.3 2.6-.5s0-2.7 1-3.8l.7-.5a12.1 12.1 0 0 0 1.5-4.2l.2-.2c0-.3 0-.7.4-.9a.9.9 0 0 0 .2-1.2h-.2a.3.3 0 0 0 0-.3c.7 0 .8-.7 1.2-1V77a.5.5 0 0 1 0-.2 3.8 3.8 0 0 0 .1-.7zM5.9 32.2z"/><path d="M26.4 9.3l-.3.2-.4.3.5-.2zm6.1-2h.1l.3-.2h-.4zm-2.6 1l-.1.1h.1v-.1zm-1.5 1.4zm1.3-.2zm-6.3 3.1zM9.2 26.2l-.4.4H9a.4.4 0 0 0 .2-.4zm3-3.5a2.1 2.1 0 0 0 .3-.6 1.5 1.5 0 0 0-.5.5c-.1.1-.1.2 0 .2zM11 24.2V24c-.2 0-.5.3-.8.3v.2c.3.3.4.2.8-.3zm3 66.2zM73.9 9.2h.1l-.5-.3zm-2.5-1.4c.5-.1.8.4 1.2.5h.1l-.3-.2-1-.5-1.1-.5.3.2zM52.8 3.1zm11.7 2h-.1l-1.2-.2h.5zm2 .7l1.3.4a3.3 3.3 0 0 0-1.3-.4zm-9 0a1 1 0 0 0 .2-.5h-.5l-.3.3.4.3zm9 1.6zM49.9 4.2zm2.9.7zM48.5 4zm13.8 2.1a.5.5 0 0 0 0 .1zm44.8 52.3h-.3V58h.3c.1 0 .2-.3.1-.4s-.1-.7-.3-.8a.3.3 0 0 1-.2-.3l.2-.4a.4.4 0 0 0 0-.2h-.2l-.2-.3c-.1.3-.2.6-.4.7a.5.5 0 0 0 0 .2c0 .1 0 .2-.1.2h-.1a1.1 1.1 0 0 1-.1.3 2.3 2.3 0 0 0-.4.9.4.4 0 0 0 .1.4h.1a1.7 1.7 0 0 0-.1.8v.4a1.8 1.8 0 0 1-.1.5h-.1l-.4.7v.6a1.5 1.5 0 0 1-.3 1.1h-.2l-.2-.2a.9.9 0 0 1-.1-.8 6.5 6.5 0 0 0 .1-1.7c0-.1-.1-.2-.1-.2a.5.5 0 0 0-.1.3v.6c0 .2-.1.6-.3.7s-.1.2-.1.3l-.2.6.3.5c-.2.2-.4.1-.5-.1v1h.3v.4a4.2 4.2 0 0 0-.3 1.4 3.3 3.3 0 0 0 0 .4 4 4 0 0 1-.2 1.3 2 2 0 0 0 0 .6l-.3.7a3.2 3.2 0 0 1-.3.7l-.3.6-.9 2.7c.3.9-.4 1.5-.8 2.1a2.7 2.7 0 0 1-.8 2.3v.4c0 .1.1.2.3.1l.4-.3.2-.4h.2c.1.1.2.1.4-.1h.2a.5.5 0 0 1 .1.6 2.9 2.9 0 0 0-.1.8c0 .1 0 .2.1.2h.2c.1.1.2 0 .3-.3l.2-.5h.3c.4-.1.4-.1.6-.6l.5-.9.3-.6.4-1a1.6 1.6 0 0 1 .3-1 .6.6 0 0 0 .1-.6c0-.2 0-.3.2-.6l.3-.4.5-1a4.7 4.7 0 0 1 .2-.9 3 3 0 0 0 .3-1.3 3.8 3.8 0 0 1 .3-.9v-.5c-.1-.2-.1-.2 0-.6s.1-.2.2-.2a.4.4 0 0 1 .1.3l.2-.5a2.3 2.3 0 0 0 .2-.9v-.3c0-.1 0-.3-.1-.3v.4c-.2 0-.3.2-.5.3a6.4 6.4 0 0 0 .1-.8l.4-.2a.7.7 0 0 0 .2-.6 1.4 1.4 0 0 1 0-.3 4.8 4.8 0 0 0 .2-1.4v-.2l.3-1h.1a.3.3 0 0 0 .1-.3h-.1a.9.9 0 0 1 .2-.8 1.5 1.5 0 0 0-.9-1zm-1.2 7.8zm-.2-9.9zm0 0zM9.1 30.8a.3.3 0 0 0 0-.2l-.2-.2-.2.2-.3.6c0 .3-.3.6-.3.9v.2h.1zm96.3 24.8h.1a1.7 1.7 0 0 0 .2-1.2.5.5 0 0 1 .2-.5h.1v-.2l-.2-.2h-.1c-.1.1-.2.3-.3.3s-.1.1-.1.3v.3a2.2 2.2 0 0 0 .1 1.2zM13.2 90.1c-.1 0 0 .2 0 .3l.8.8h.1c-.2-.3-.3-.6-.2-.7a.9.9 0 0 1-.5-.2zm.8.3zm92.3-35.7h.1a2 2 0 0 0 0-.6c-.3.1-.3.1-.3.6s.1.1.2 0z"/><path d="M106.7 62a.6.6 0 0 0 .1-.5c0-.1-.1-.2-.1-.1h-.2v.2c0 .4.1.5.2.4zm.1-8.2h-.1v.6a1 1 0 0 0 .1-.6zM17.1 92.6h-.2v.2l.2.2h.2v-.2zm86.6-33.3c0-.1 0-.1-.1-.1zM9.9 86.5l.5.5-.4-.6z"/><circle cx="10.5" cy="87.1" transform="rotate(-24.8 10.4 87.159)"/><path d="M9.7 30.1h-.1v.2-.2h.1zm83.2-6.6l-.2-.3h-.1zm-14.7 77.1zM5.9 32.2zm-.1.2a.3.3 0 0 0 .1-.2v.2zm1.9-4.9zM61.5 2.4zm42.8 58.2v.1-.1zM16.4 92.5h-.1c.1.1.2 0 .1-.1zm.2.7h.1l-.1-.1v.1zm73.9-71.3zm15.2 34.4zM14.6 91.7zm92.1-37zm-.8 11.4zM34.6 0z"/></g></g><g id="SvgjsG1856" featureKey="symbolFeature-0" transform="matrix(0.7406271021761064,0,0,0.7406271021761064,119.6503058211543,56.697458840786815)" fill="#000000"><path xmlns="http://www.w3.org/2000/svg" d="M91.4,48.7c-1.9-7.5-3.9-15-5.8-22.5c-0.1-0.4-0.3-0.6-0.7-0.8c-9.4-3.3-18.7-6.6-28-9.9c-0.6-0.2-1.2-0.3-1.8-0.2  c-6.4,0.6-12.8,1.3-19.1,1.9c-0.5,0.1-1.1,0.1-1.6,0.3c-4,1.9-8.1,3.8-12.2,5.6c-0.3,0.1-0.6,0.3-0.8,0.6  c-3.4,3.4-6.7,6.8-10.1,10.2c-0.2,0.2-0.4,0.5-0.4,0.8c-0.7,4.1-1.5,8.1-2.3,12.2c-0.1,0.5,0.1,0.8,0.3,1.1  c3.6,4.6,7.2,9.1,10.8,13.7c0.3,0.4,0.7,0.6,1.2,0.6c4.6,0,9.3,0,13.9,0c0.5,0,0.9,0.1,1.3,0.5c4.4,3.8,8.8,7.6,13.2,11.4  c0.4,0.3,0.6,0.4,1,0c1-0.8,2.1-1.6,3.4-2.6c0,0.4,0,0.7,0,1c0,0.6,0,1.1,0.6,1.6c4.3,3.3,8.6,6.7,12.9,10.1  c0.3,0.3,0.6,0.4,1.1,0.4c2.3,0,4.5,0,6.8,0c0.8,0,0.8,0,0.4-0.7c-2-3.7-3.9-7.5-6-11.2c-0.3-0.5-0.2-0.7,0.3-1.1  c4.5-3.2,9-6.4,13.6-9.5c0.3-0.2,0.6-0.5,0.8-0.9c2.4-3.9,4.7-7.7,7.1-11.6C91.5,49.4,91.5,49.1,91.4,48.7z M25.6,25.9  c3.3-1.5,6.6-3.1,9.9-4.7c0.9-0.5,1.9-0.6,2.8-0.7c5.8-0.6,11.6-1.1,17.4-1.7c0.3,0,0.7,0,1,0.1c8.6,3,17.1,6,25.7,9  c0.4,0.1,0.6,0.3,0.7,0.7c0.3,1.3,0.7,2.7,1.1,4c0.2,0.5,0,0.6-0.5,0.6c-5.3,0-10.6,0-15.9,0c-0.5,0-0.8,0.1-1.1,0.6  c-0.8,1.5-1.7,3-2.5,4.4c-0.2,0.3-0.4,0.5-0.8,0.5c-5.1,0-10.2,0-15.4,0c-0.3,0-0.6-0.1-0.8-0.4c-0.7-1.2-1.3-2.3-2-3.5  c-0.2-0.3-0.2-0.6,0-0.9c0.8-1,1.5-2.1,2.3-3.2c0.2-0.3,0.4-0.4,0.8-0.4c3.3,0,6.5,0,9.8,0c0.4,0,0.7,0.2,1,0.4  c1.2,0.8,2.7,0.7,3.7-0.3c0.9-1,1.1-2.5,0.3-3.7c-0.8-1.1-2.4-1.7-3.6-0.9c-1.1,0.8-2.2,0.7-3.3,0.7c-3.2,0-6.5,0-9.7,0  c-0.5,0-0.7,0.1-1,0.5c-0.7,1.1-1.5,2.2-2.2,3.3c-0.3,0.4-0.4,0.4-0.6,0c-0.3-1-1-1.2-2-1.2c-5.8,0.1-11.6,0-17.4,0  c-0.3,0-0.5,0-0.8,0C23.3,28,24.1,26.6,25.6,25.9z M80.3,59.4c-5.3,3.7-10.5,7.4-15.8,11.1c-0.4,0.3-0.5,0.5-0.2,1  c1.5,2.8,2.9,5.6,4.4,8.4c0.1,0.2,0.3,0.5,0.2,0.8c-3.7-2.9-7.3-5.7-11-8.5c-0.3-0.3-0.3-0.5-0.3-0.9c0-2.5,0-4.9,0-7.4  c-0.3,0-0.5,0.2-0.7,0.4c-2.1,1.6-4.3,3.3-6.4,4.9c-0.5,0.4-0.8,0.3-1.2-0.1c-3.9-3.4-7.8-6.8-11.7-10.2c-0.4-0.3-0.8-0.5-1.3-0.5  c-4.5,0-9,0-13.5,0c-0.8,0-1.1-0.6-1.5-1.1c-0.2-0.2,0.1-0.4,0.2-0.6c0.7-1,1.4-1.9,2-2.9c0.6-0.8,1.7-1,2.5-0.4  c1.9,1.4,4.3,0.5,4.6-1.8c0.2-1.2-0.4-2.3-1.4-2.9c-1-0.6-2.4-0.5-3.2,0.3c-0.3,0.2-0.5,0.3-0.9,0.3c-0.9,0-1.8,0-2.7,0  c-0.4,0-0.7,0.1-0.9,0.5c-0.9,1.3-1.8,2.5-2.7,3.8c-0.3,0.4-0.4,0.4-0.7,0c-1.7-2.3-3.5-4.6-5.2-6.8c-0.2-0.3-0.3-0.5-0.2-0.9  c0.1-0.7,0.3-1.3,0.3-2c0.1-0.5,0.3-0.7,0.8-0.7c5.3,0,10.6,0,15.9,0c1,0,2,0,3,0c0.5,0,0.7,0.1,1,0.6c1.6,2.9,3.3,5.8,5,8.7  c0.3,0.5,0.5,0.8,1.1,0.7c1.5-0.3,2.4,0.3,3,1.7c0.8,1.8,2,3.5,2.9,5.2c0.2,0.4,0.4,0.5,0.8,0.5c1.1,0,2.2,0,3.3,0  c0.9,0,1.7,0,2.6,0.6c1,0.7,2.7,0.4,3.3-0.5c1.1-1.4,1-3,0-4.1c-1-1-2.7-1.3-3.7-0.4c-0.5,0.4-1,0.4-1.6,0.5c-1.7,0.3-2.8-0.3-3.3-2  c-0.2-0.4-0.4-0.8-0.7-1.4c0.3,0,0.5,0,0.7,0c4.3,0,8.5,0,12.8,0c0.5,0,0.7,0.1,1,0.6c0.6,1.2,1.3,2.3,2,3.4c0.2,0.4,0.5,0.5,1,0.5  c5.6,0,11.3,0,16.9,0c0.3,0,0.5,0,0.9,0C81.3,58.4,80.9,59,80.3,59.4z M86.9,48.9c-0.9,1.4-1.7,2.8-2.6,4.2  c-0.2,0.3-0.4,0.4-0.8,0.4c-5.8,0-11.7,0-17.5,0c-0.4,0-0.6-0.2-0.8-0.5c-0.7-1.2-1.4-2.3-2-3.5c-0.2-0.4-0.5-0.6-1-0.6  c-6.7,0-13.3,0-20,0c-0.5,0-0.9-0.1-1.1-0.6c-1.6-2.9-3.3-5.7-5-8.6c-0.3-0.5-0.5-0.6-1.1-0.6c-6.8,0-13.6,0-20.3,0  c-0.7,0-0.7-0.1-0.7-0.8c0.2-2.2,1.9-3.3,3.2-4.8c0.2-0.2,0.5-0.2,0.7-0.2c3.3,0,6.7,0,10,0c3.3,0,6.7,0,10,0c0.5,0,0.7,0.1,1,0.6  c1.7,2.9,3.4,5.9,5.1,8.8c0.2,0.4,0.5,0.6,1,0.6c6.6,0,13.2,0,19.8,0c0.5,0,0.7-0.2,0.9-0.6c0.8-1.5,1.7-3,2.5-4.4  c0.2-0.4,0.4-0.5,0.8-0.5c4.9,0,9.9,0,14.8,0c0.5,0,0.7,0.2,0.8,0.6c0.4,1.8,0.9,3.6,1.4,5.4c0.2,0.5,0,0.7-0.5,0.6  c-3.2,0-6.4,0-9.6,0c-0.4,0-0.6-0.1-0.9-0.3c-1.3-1-2.9-0.8-3.9,0.3c-1,1.1-1,2.9,0.1,3.9c1.1,1.1,2.7,1.2,4,0.1  c0.2-0.2,0.4-0.2,0.7-0.2c3.6,0,7.1,0,10.7,0C87.2,48.3,87.2,48.5,86.9,48.9z"/></g><g id="SvgjsG1857" featureKey="nameFeature-0" transform="matrix(2.4937659181582754,0,0,2.4937659181582754,46.0249363273669,109.07480898210069)" fill="#000000"><path d="M7 40 l-3 0 l0 -28 l12.4 0 c4.2 0 7 2.8 7 6.6 l0 5.4 c0 3.8 -2.8 6.6 -7 6.6 l-9.4 0 l0 9.4 z M16.4 14.600000000000001 l-9.4 0 l0 13.4 l9.4 0 c2.2 0 4 -1.8 4 -4 l0 -5.4 c0 -2.2 -1.8 -4 -4 -4 z M32.400000000000006 40 l-3 0 l0 -28 l12.4 0 c4.2 0 7 2.8 7 6.6 l0 5.4 c0 3.8 -2.8 6.6 -7 6.6 l-9.4 0 l0 9.4 z M41.8 14.600000000000001 l-9.4 0 l0 13.4 l9.4 0 c2.2 0 4 -1.8 4 -4 l0 -5.4 c0 -2.2 -1.8 -4 -4 -4 z M70 36.2 l-3 0 l-8.2 -19.6 l-0.2 0 l-2.8 23.4 l-3 0 l0 -1.2 l3.6 -26.8 l3.6 0 l8.4 20.2 l0.2 0 l8.4 -20.2 l3.6 0 l3.6 26.8 l0 1.2 l-3 0 l-2.8 -23.4 l-0.2 0 z"/></g><g id="SvgjsG1858" featureKey="sloganFeature-0" transform="matrix(0.6637103645871413,0,0,0.6637103645871413,57.938063163475164,216.01773844544067)" fill="#000000"><path d="M6.93 9.99 c2.84 0 4.49 2.23 4.49 5.13 s-1.69 5.13 -4.49 5.13 c-1.4 0 -2.44 -0.57 -3.17 -1.41 l0 4.66 c0 0.18 -0.12 0.3 -0.3 0.3 l-1.56 0 c-0.18 0 -0.3 -0.12 -0.3 -0.3 l0 -13 c0 -0.18 0.12 -0.3 0.3 -0.3 l1.56 0 c0.18 0 0.3 0.12 0.3 0.3 l0 1.14 l0.2 0 c0.54 -0.91 1.47 -1.65 2.97 -1.65 z M6.5 18.27 c1.87 0 2.83 -1.29 2.83 -3.17 s-0.96 -3.13 -2.83 -3.13 c-1.7 0 -2.76 1.25 -2.76 3.13 s1.06 3.17 2.76 3.17 z M31.89025 10.2 c0.22 0 0.33 0.12 0.24 0.34 l-5.4 13.02 c-0.06 0.16 -0.2 0.24 -0.36 0.24 l-1.56 0 c-0.22 0 -0.33 -0.12 -0.24 -0.34 l1.43 -3.44 l-3.97 -9.48 c-0.09 -0.22 0.02 -0.34 0.24 -0.34 l1.56 0 c0.16 0 0.3 0.08 0.36 0.24 l2.89 7.13 l2.88 -7.13 c0.07 -0.16 0.2 -0.24 0.36 -0.24 l1.57 0 z M52.6005 18.21 c0.25 0.06 0.36 0.14 0.36 0.35 l0 1.19 c0 0.23 -0.22 0.32 -0.57 0.33 c-1.45 0.03 -2.13 -0.5 -2.13 -1.64 l-0.09 0 c-1.02 1.16 -2.74 1.8 -4.15 1.8 c-2.19 0 -3.33 -1.09 -3.33 -2.79 c0 -1.77 1.13 -2.67 3.36 -3 l2.33 -0.36 c0.83 -0.13 1.27 -0.24 1.39 -0.47 c-0.05 -1.36 -0.83 -1.8 -2.12 -1.8 c-1.27 0 -2.19 0.34 -2.34 1.35 c-0.02 0.14 -0.11 0.22 -0.29 0.22 l-1.49 0 c-0.18 0 -0.31 -0.1 -0.29 -0.3 c0.24 -2.33 1.98 -3.11 4.43 -3.11 c2.84 0 4.2 1.33 4.2 3.74 l0 3.67 c0 0.44 0.23 0.72 0.73 0.82 z M46.430499999999995 18.39 c1.11 0 2.28 -0.25 3.34 -1.31 l0 -2.01 c-0.11 0.23 -0.5 0.34 -1.25 0.46 l-2.1 0.33 c-1.18 0.19 -1.57 0.66 -1.57 1.32 c0 0.73 0.48 1.21 1.58 1.21 z M68.53075 9.98 c2.96 0 4.74 2.27 4.74 4.89 c0 0.74 -0.09 1.11 -0.65 1.11 l-6.99 0 c0.23 1.52 1.5 2.5 3.31 2.5 c1.05 0 1.78 -0.32 2.45 -0.83 c0.16 -0.12 0.28 -0.15 0.43 0 l0.66 0.66 c0.15 0.15 0.16 0.29 0 0.45 c-0.95 0.95 -2.19 1.5 -3.76 1.5 c-3.12 0 -5.19 -2.26 -5.19 -5.14 s2.07 -5.14 5 -5.14 z M68.54075 11.83 c-1.53 0 -2.67 1 -2.89 2.59 l5.72 0 c-0.16 -1.57 -1.27 -2.59 -2.83 -2.59 z M105.89124999999999 9.99 c2.84 0 4.49 2.23 4.49 5.13 s-1.69 5.13 -4.49 5.13 c-1.4 0 -2.44 -0.57 -3.17 -1.41 l0 4.66 c0 0.18 -0.12 0.3 -0.3 0.3 l-1.56 0 c-0.18 0 -0.3 -0.12 -0.3 -0.3 l0 -13 c0 -0.18 0.12 -0.3 0.3 -0.3 l1.56 0 c0.18 0 0.3 0.12 0.3 0.3 l0 1.14 l0.2 0 c0.54 -0.91 1.47 -1.65 2.97 -1.65 z M105.46124999999999 18.27 c1.87 0 2.83 -1.29 2.83 -3.17 s-0.96 -3.13 -2.83 -3.13 c-1.7 0 -2.76 1.25 -2.76 3.13 s1.06 3.17 2.76 3.17 z M127.1815 9.98 c2.09 0 3.54 1.42 3.54 4.04 l0 5.68 c0 0.18 -0.12 0.3 -0.3 0.3 l-1.56 0 c-0.18 0 -0.3 -0.12 -0.3 -0.3 l0 -5.36 c0 -1.67 -0.86 -2.37 -2.17 -2.37 c-1.67 0 -2.5 1.26 -2.68 1.87 l0 5.86 c0 0.18 -0.12 0.3 -0.3 0.3 l-1.56 0 c-0.18 0 -0.3 -0.12 -0.3 -0.3 l0 -13.4 c0 -0.18 0.12 -0.3 0.3 -0.3 l1.56 0 c0.18 0 0.3 0.12 0.3 0.3 l0 5.52 l0.16 0 c0.59 -0.94 1.66 -1.84 3.31 -1.84 z M147.04175 20.26 c-2.85 0 -5.15 -2.26 -5.15 -5.14 c0 -2.87 2.3 -5.14 5.15 -5.14 c2.84 0 5.14 2.27 5.14 5.14 c0 2.88 -2.3 5.14 -5.14 5.14 z M147.04175 18.25 c1.72 0 3.05 -1.4 3.05 -3.13 c0 -1.72 -1.33 -3.14 -3.05 -3.14 c-1.73 0 -3.06 1.42 -3.06 3.14 c0 1.73 1.33 3.13 3.06 3.13 z M169.02200000000002 9.98 c2.09 0 3.54 1.42 3.54 4.04 l0 5.68 c0 0.18 -0.12 0.3 -0.3 0.3 l-1.56 0 c-0.18 0 -0.3 -0.12 -0.3 -0.3 l0 -5.36 c0 -1.67 -0.86 -2.37 -2.17 -2.37 c-1.9 0 -2.72 1.64 -2.72 2.08 l0 5.65 c0 0.18 -0.12 0.3 -0.3 0.3 l-1.56 0 c-0.18 0 -0.3 -0.12 -0.3 -0.3 l0 -9.2 c0 -0.18 0.12 -0.3 0.3 -0.3 l1.48 0 c0.18 0 0.28 0.12 0.3 0.3 l0.08 1.32 l0.21 0 c0.58 -0.94 1.65 -1.84 3.3 -1.84 z M188.73225000000002 9.98 c2.96 0 4.74 2.27 4.74 4.89 c0 0.74 -0.09 1.11 -0.65 1.11 l-6.99 0 c0.23 1.52 1.5 2.5 3.31 2.5 c1.05 0 1.78 -0.32 2.45 -0.83 c0.16 -0.12 0.28 -0.15 0.43 0 l0.66 0.66 c0.15 0.15 0.16 0.29 0 0.45 c-0.95 0.95 -2.19 1.5 -3.76 1.5 c-3.12 0 -5.19 -2.26 -5.19 -5.14 s2.07 -5.14 5 -5.14 z M188.74225 11.83 c-1.53 0 -2.67 1 -2.89 2.59 l5.72 0 c-0.16 -1.57 -1.27 -2.59 -2.83 -2.59 z M221.06275000000002 20 c-0.18 0 -0.3 -0.12 -0.3 -0.3 l0 -9.2 c0 -0.18 0.12 -0.3 0.3 -0.3 l1.33 0 c0.18 0 0.29 0.12 0.3 0.3 l0.05 0.8 l0.15 0 c0.38 -0.87 1.17 -1.32 2.18 -1.32 c0.96 0 1.68 0.41 2.06 1.32 l0.12 0 c0.43 -0.88 1.24 -1.32 2.23 -1.32 c1.59 0 2.55 0.91 2.55 3.48 l0 6.24 c0 0.18 -0.12 0.3 -0.3 0.3 l-1.41 0 c-0.18 0 -0.3 -0.12 -0.3 -0.3 l0 -6.24 c0 -1.22 -0.41 -1.62 -1.18 -1.62 c-0.96 0 -1.37 0.72 -1.46 1.32 l0 6.54 c0 0.18 -0.12 0.3 -0.3 0.3 l-1.37 0 c-0.18 0 -0.3 -0.12 -0.3 -0.3 l0 -6.24 c0 -1.22 -0.41 -1.62 -1.2 -1.62 c-0.93 0 -1.35 0.72 -1.44 1.32 l0 6.54 c0 0.18 -0.12 0.3 -0.3 0.3 l-1.41 0 z M252.85300000000004 10.2 c0.22 0 0.33 0.12 0.24 0.34 l-5.4 13.02 c-0.06 0.16 -0.2 0.24 -0.36 0.24 l-1.56 0 c-0.22 0 -0.33 -0.12 -0.24 -0.34 l1.43 -3.44 l-3.97 -9.48 c-0.09 -0.22 0.02 -0.34 0.24 -0.34 l1.56 0 c0.16 0 0.3 0.08 0.36 0.24 l2.89 7.13 l2.88 -7.13 c0.07 -0.16 0.2 -0.24 0.36 -0.24 l1.57 0 z M273.56325000000004 18.21 c0.25 0.06 0.36 0.14 0.36 0.35 l0 1.19 c0 0.23 -0.22 0.32 -0.57 0.33 c-1.45 0.03 -2.13 -0.5 -2.13 -1.64 l-0.09 0 c-1.02 1.16 -2.74 1.8 -4.15 1.8 c-2.19 0 -3.33 -1.09 -3.33 -2.79 c0 -1.77 1.13 -2.67 3.36 -3 l2.33 -0.36 c0.83 -0.13 1.27 -0.24 1.39 -0.47 c-0.05 -1.36 -0.83 -1.8 -2.12 -1.8 c-1.27 0 -2.19 0.34 -2.34 1.35 c-0.02 0.14 -0.11 0.22 -0.29 0.22 l-1.49 0 c-0.18 0 -0.31 -0.1 -0.29 -0.3 c0.24 -2.33 1.98 -3.11 4.43 -3.11 c2.84 0 4.2 1.33 4.2 3.74 l0 3.67 c0 0.44 0.23 0.72 0.73 0.82 z M267.39325 18.39 c1.11 0 2.28 -0.25 3.34 -1.31 l0 -2.01 c-0.11 0.23 -0.5 0.34 -1.25 0.46 l-2.1 0.33 c-1.18 0.19 -1.57 0.66 -1.57 1.32 c0 0.73 0.48 1.21 1.58 1.21 z M294.23350000000005 18.35 c0.11 0.13 0.13 0.28 0.02 0.41 c-0.42 0.52 -1.51 1.4 -3.3 1.4 c-2.05 0 -3.98 -0.76 -3.98 -3.97 l0 -4.18 l-2.48 0 c-0.18 0 -0.3 -0.12 -0.3 -0.3 l0 -1.21 c0 -0.18 0.12 -0.3 0.3 -0.3 l2.48 0 l0 -2.6 c0 -0.18 0.12 -0.3 0.3 -0.3 l1.56 0 c0.18 0 0.3 0.12 0.3 0.3 l0 2.6 l3.95 0 c0.18 0 0.3 0.12 0.3 0.3 l0 1.21 c0 0.18 -0.12 0.3 -0.3 0.3 l-3.95 0 l0 3.95 c0 1.87 1.08 2.26 2.19 2.26 c0.83 0 1.43 -0.36 1.82 -0.67 c0.14 -0.13 0.3 -0.12 0.42 0.02 z"/></g>
			</g>
		</svg>
	